<?xml version="1.0" standalone="no"?>
<!DOCTYPE svg PUBLIC "-//W3C//DTD SVG 20010904//EN"
 "http://www.w3.org/TR/2001/REC-SVG-20010904/DTD/svg10.dtd">
<svg version="1.0" xmlns="http://www.w3.org/2000/svg"
 width="800.000000pt" height="800.000000pt" viewBox="0 0 800.000000 800.000000"
 preserveAspectRatio="xMidYMid meet">
<metadata>
Created by potrace 1.14, written by Peter Selinger 2001-2017
</metadata>
<g transform="translate(0.000000,800.000000) scale(0.100000,-0.100000)"
fill="#000000" stroke="none">
<path d="M3768 7716 c-1 -2 -43 -6 -93 -10 -49 -4 -117 -11 -150 -16 -33 -5
-82 -12 -110 -15 -27 -4 -104 -18 -170 -31 -608 -125 -1169 -399 -1655 -807
-84 -71 -302 -284 -370 -362 -323 -370 -561 -769 -718 -1205 -54 -149 -126
-401 -146 -510 -2 -14 -11 -63 -20 -110 -8 -47 -17 -106 -20 -132 -4 -27 -8
-67 -11 -90 -18 -146 -22 -242 -20 -479 1 -146 4 -270 7 -275 3 -5 9 -44 13
-87 7 -87 6 -76 35 -242 128 -728 489 -1423 1015 -1950 151 -152 269 -257 369
-330 23 -16 43 -32 46 -36 12 -14 263 -181 350 -232 243 -141 576 -286 805
-351 6 -2 17 -6 25 -9 16 -6 245 -61 295 -71 101 -21 180 -34 244 -41 30 -4
63 -8 74 -11 100 -19 574 -26 742 -11 182 17 235 24 405 58 217 44 228 47 400
100 94 30 131 43 265 95 132 51 370 165 455 219 22 14 42 25 45 25 3 0 18 8
33 18 15 10 74 49 132 87 142 92 258 181 420 320 85 74 283 277 384 394 68 80
218 286 291 401 94 147 254 461 312 610 94 242 173 524 211 760 38 232 47 346
47 615 0 198 -8 372 -20 433 -1 9 -6 40 -9 67 -4 28 -8 61 -11 75 -2 14 -7 41
-9 60 -3 19 -8 46 -11 60 -2 14 -7 39 -11 55 -59 295 -169 614 -306 890 -99
200 -176 327 -338 559 -34 49 -178 226 -229 281 -142 153 -260 266 -435 413
-111 94 -368 267 -521 352 -349 194 -778 348 -1140 409 -154 26 -169 29 -245
36 -36 4 -78 9 -95 12 -33 5 -551 13 -557 9z"/>
</g>
</svg>
